<svg width="77" height="45" viewBox="0 0 77 45" fill="none" xmlns="http://www.w3.org/2000/svg">
<g clip-path="url(#clip0_0_1023)">
<path d="M38.5515 37.8341L40.4363 38.8342C39.8313 40.0723 39.1099 41.0724 38.2955 41.8343C37.4811 42.5963 36.5735 43.1677 35.5729 43.5725C34.5723 43.9773 33.4321 44.1678 32.1522 44.1678C29.3366 44.1678 27.126 43.2153 25.5203 41.3343C23.938 39.4294 23.1235 37.3103 23.1235 34.9054C23.1235 32.6672 23.7984 30.6671 25.148 28.9051C26.8467 26.667 29.1504 25.5479 32.0126 25.5479C34.9679 25.5479 37.3182 26.6908 39.0867 28.9766C40.3432 30.5957 40.9715 32.6196 40.9948 35.0245H25.4273C25.4738 37.0722 26.1021 38.7627 27.3587 40.0723C28.592 41.3819 30.1278 42.0486 31.9661 42.0486C32.8503 42.0486 33.7113 41.8819 34.549 41.5724C35.3868 41.2629 36.0849 40.8343 36.6666 40.3342C37.2484 39.8342 37.8766 39.0009 38.5515 37.8341ZM38.5515 33.072C38.249 31.8577 37.8301 30.8814 37.2484 30.1671C36.6899 29.429 35.922 28.8575 34.9912 28.4051C34.0604 27.9527 33.083 27.7384 32.0359 27.7384C30.3372 27.7384 28.8712 28.2861 27.6612 29.4052C26.7769 30.2147 26.1021 31.4291 25.6367 33.072H38.5515Z" fill="#ED8A22"/>
<path d="M44.4663 33.857H45.3738V34.8808C45.6531 34.4761 45.9323 34.1665 46.2348 33.976C46.5373 33.7856 46.8398 33.6665 47.1656 33.6665C47.4216 33.6665 47.6775 33.7379 47.9568 33.9046L47.4914 34.6666C47.3052 34.5951 47.1423 34.5475 47.026 34.5475C46.7235 34.5475 46.4442 34.6665 46.165 34.9285C45.8858 35.1666 45.6763 35.5714 45.5367 36.0952C45.4204 36.5 45.3738 37.3095 45.3738 38.5477V40.9525H44.4663V33.857Z" fill="#ED8A22" stroke="#ED8A22" stroke-width="0.296113" stroke-miterlimit="10"/>
<path d="M51.9839 33.8583H52.8681V35.0727C53.1707 34.6203 53.4964 34.2869 53.8222 34.0726C54.2643 33.7869 54.753 33.644 55.2417 33.644C55.5674 33.644 55.8932 33.7155 56.1957 33.8345C56.4982 33.9774 56.7542 34.1441 56.9404 34.3822C57.1265 34.5965 57.2894 34.9298 57.429 35.3346C57.7315 34.787 58.1039 34.3584 58.546 34.0726C58.9881 33.7869 59.4768 33.644 59.9887 33.644C60.4774 33.644 60.8963 33.7631 61.2453 34.025C61.5943 34.2869 61.8736 34.6203 62.0597 35.0489C62.2459 35.5013 62.3157 36.1442 62.3157 37.049V40.9539H61.4315V37.0966C61.4315 36.3346 61.3849 35.8108 61.2686 35.5251C61.1522 35.2394 60.9893 35.0012 60.7334 34.8346C60.4774 34.6679 60.1749 34.5727 59.8258 34.5727C59.3837 34.5727 59.0114 34.6917 58.6391 34.9536C58.29 35.2155 58.0108 35.5727 57.8479 36.0013C57.685 36.4299 57.5919 37.168 57.5919 38.1681V40.9539H56.7077V37.3347C56.7077 36.4775 56.6611 35.9061 56.5448 35.5965C56.4517 35.287 56.2655 35.0489 56.0096 34.8584C55.7536 34.6679 55.4511 34.5727 55.0788 34.5727C54.6599 34.5727 54.2876 34.6917 53.9153 34.9536C53.5662 35.2155 53.287 35.5489 53.1241 35.9775C52.9612 36.4061 52.8681 37.0728 52.8681 37.9538V40.9539H51.9839V33.8583Z" fill="#ED8A22" stroke="#ED8A22" stroke-width="0.296113" stroke-miterlimit="10"/>
<path d="M73.0453 32.5479C73.2082 32.5479 73.3711 32.6193 73.4874 32.7383C73.6038 32.8574 73.6736 33.0003 73.6736 33.1907C73.6736 33.3574 73.6038 33.5003 73.4874 33.6431C73.3711 33.7622 73.2314 33.8336 73.0453 33.8336C72.8824 33.8336 72.7428 33.7622 72.6031 33.6431C72.4868 33.5241 72.417 33.3812 72.417 33.1907C72.417 33.0241 72.4868 32.8574 72.6031 32.7383C72.7428 32.6193 72.8824 32.5479 73.0453 32.5479ZM72.673 35.0003H73.4176V40.953H72.673V35.0003Z" fill="#ED8A22" stroke="#ED8A22" stroke-width="0.394817" stroke-miterlimit="10"/>
<path d="M67.578 32.5479C67.7409 32.5479 67.9038 32.6193 68.0201 32.7383C68.1365 32.8574 68.2063 33.0003 68.2063 33.1907C68.2063 33.3574 68.1365 33.5003 68.0201 33.6431C67.9038 33.7622 67.7641 33.8336 67.578 33.8336C67.4151 33.8336 67.2755 33.7622 67.1359 33.6431C67.0195 33.5241 66.9497 33.3812 66.9497 33.1907C66.9497 33.0241 67.0195 32.8574 67.1359 32.7383C67.2755 32.6193 67.4151 32.5479 67.578 32.5479ZM67.2057 35.0003H67.9503V40.953H67.2057V35.0003Z" fill="#ED8A22" stroke="#ED8A22" stroke-width="0.394817" stroke-miterlimit="10"/>
<path d="M44.3545 21.1182H45.262V22.1421C45.5413 21.7373 45.8205 21.4278 46.123 21.2373C46.4255 21.0468 46.728 20.9277 47.0538 20.9277C47.3098 20.9277 47.5657 20.9992 47.845 21.1658L47.3796 21.9278C47.1934 21.8563 47.0305 21.8087 46.9142 21.8087C46.6117 21.8087 46.3324 21.9278 46.0532 22.1897C45.7739 22.4278 45.5645 22.8326 45.4249 23.3564C45.3086 23.7612 45.262 24.5708 45.262 25.8089V28.2138H44.3545V21.1182Z" fill="#363B51" stroke="#363B51" stroke-width="0.394817" stroke-miterlimit="10"/>
<path d="M56.6868 21.1182V28.19H55.8026V26.9756C55.4302 27.4519 55.0114 27.7852 54.546 28.0233C54.0806 28.2614 53.5686 28.3805 53.0334 28.3805C52.0561 28.3805 51.2184 28.0233 50.5203 27.2852C49.8222 26.547 49.4731 25.6661 49.4731 24.6422C49.4731 23.6183 49.8222 22.7612 50.5203 22.023C51.2184 21.3087 52.0561 20.9277 53.0567 20.9277C53.6152 20.9277 54.1504 21.0468 54.5925 21.3087C55.0579 21.5468 55.4535 21.9278 55.8026 22.4278V21.1182H56.6868ZM53.1265 21.8325C52.6378 21.8325 52.1724 21.9516 51.7536 22.2135C51.3347 22.4516 51.009 22.8088 50.753 23.2612C50.497 23.7136 50.3807 24.1898 50.3807 24.6898C50.3807 25.1898 50.497 25.6661 50.753 26.1185C51.009 26.5709 51.3347 26.928 51.7536 27.1899C52.1724 27.4519 52.6378 27.5709 53.1032 27.5709C53.5919 27.5709 54.0573 27.4519 54.4994 27.1899C54.9416 26.928 55.2673 26.5947 55.5 26.1661C55.7327 25.7375 55.8491 25.2613 55.8491 24.7136C55.8491 23.9041 55.5931 23.2136 55.0579 22.6659C54.546 22.0945 53.8944 21.8325 53.1265 21.8325Z" fill="#363B51" stroke="#363B51" stroke-width="0.394817" stroke-miterlimit="10"/>
<path d="M59.8535 21.1182H60.7378V22.3802C61.0868 21.904 61.4824 21.523 61.9245 21.2849C62.3667 21.0468 62.8321 20.9277 63.344 20.9277C63.8559 20.9277 64.3213 21.0706 64.7169 21.3325C65.1125 21.5944 65.415 21.9754 65.6012 22.4278C65.7873 22.8802 65.8804 23.5945 65.8804 24.547V28.19H64.9962V24.8089C64.9962 23.9993 64.9729 23.4517 64.9031 23.1659C64.81 22.6897 64.6006 22.3564 64.2981 22.1183C63.9955 21.8802 63.6232 21.7611 63.1578 21.7611C62.6226 21.7611 62.134 21.9516 61.7151 22.3088C61.2962 22.6659 61.017 23.1183 60.8774 23.666C60.7843 24.0231 60.761 24.666 60.761 25.5946V28.19H59.8768V21.1182H59.8535Z" fill="#363B51" stroke="#363B51" stroke-width="0.394817" stroke-miterlimit="10"/>
<path d="M75.8797 18.4043V28.2143H74.9954V26.9999C74.6231 27.4761 74.2042 27.8095 73.7388 28.0476C73.2735 28.2857 72.7615 28.4048 72.2263 28.4048C71.249 28.4048 70.4113 28.0476 69.7132 27.3095C69.0151 26.5713 68.666 25.6904 68.666 24.6665C68.666 23.6426 69.0151 22.7855 69.7132 22.0473C70.4113 21.333 71.249 20.952 72.2496 20.952C72.8081 20.952 73.3433 21.0711 73.7854 21.333C74.2508 21.5711 74.6464 21.9521 74.9954 22.4521V18.4043H75.8797ZM72.3194 21.833C71.8307 21.833 71.3653 21.9521 70.9465 22.214C70.5276 22.4521 70.2018 22.8093 69.9459 23.2617C69.6899 23.7141 69.5735 24.1903 69.5735 24.6903C69.5735 25.1903 69.6899 25.6665 69.9459 26.1189C70.2018 26.5713 70.5276 26.9285 70.9465 27.1904C71.3653 27.4523 71.8307 27.5714 72.2961 27.5714C72.7848 27.5714 73.2502 27.4523 73.6923 27.1904C74.1344 26.9285 74.4602 26.5952 74.6929 26.1666C74.9256 25.738 75.042 25.2618 75.042 24.7141C75.042 23.9046 74.786 23.214 74.2508 22.6664C73.7389 22.0949 73.0873 21.833 72.3194 21.833Z" fill="#363B51" stroke="#363B51" stroke-width="0.394817" stroke-miterlimit="10"/>
<path d="M39.5346 14.6911L37.9756 16.1911C36.9284 15.1196 35.6718 14.2386 34.2989 13.6434C33.0656 13.0957 31.7625 12.7862 30.4128 12.7624C28.8305 12.7624 27.2947 13.1672 25.9218 13.9529C24.5488 14.6911 23.4086 15.8102 22.6174 17.1674C21.8495 18.4531 21.4539 19.9532 21.4539 21.4533C21.4539 23.001 21.8728 24.5248 22.664 25.8582C23.4784 27.2392 24.6186 28.3822 26.0148 29.1441C27.4576 29.9298 29.0865 30.3584 30.7154 30.3346C32.7864 30.3346 34.5316 29.7394 35.9511 28.5488C37.3473 27.4059 38.2548 25.7392 38.4875 23.9058H32.0883V21.9295H40.7214C40.6981 25.0963 39.7906 27.6202 37.9523 29.4774C36.114 31.3347 33.6939 32.2633 30.6455 32.2871C26.9456 32.2871 23.9904 31.0013 21.8263 28.406C20.1974 26.5011 19.3131 24.0486 19.3364 21.5009C19.3364 19.596 19.8251 17.715 20.7791 16.0721C21.7099 14.4291 23.0828 13.0719 24.7117 12.1433C26.457 11.1909 28.3884 10.6909 30.3663 10.7147C32.0185 10.7147 33.6474 11.0242 35.1599 11.6671C36.7888 12.3814 38.2781 13.4053 39.5346 14.6911Z" fill="#363B51"/>
<path d="M22.2255 12.096C22.2255 12.096 8.1938 11.7865 2.21345 0.643066C2.21345 0.643066 1.46881 14.0961 18.2464 14.0247C18.2464 14.0247 14.6163 18.9535 18.13 23.5251C18.1068 23.4775 16.1754 16.6914 22.2255 12.096Z" fill="#363B51"/>
<path d="M15.9214 18.9773C15.9214 18.4534 15.9912 17.9296 16.1076 17.4058C16.1076 17.4058 13.5712 19.8821 8.40527 18.5249C8.40527 18.5249 11.57 23.3346 15.7353 19.1916" fill="#ED8A22"/>
<path d="M16.3395 16.405C16.5489 15.7145 16.8281 15.0716 17.1772 14.4525C17.1772 14.4525 8.54406 16.7145 3.68066 11.5952C3.68066 11.5952 6.96171 20.9528 15.8973 16.6193" fill="#ED8A22"/>
<path d="M25.7138 28.2632L27.5288 29.5728C26.9704 30.168 26.505 30.8585 26.1792 31.6205L23.8057 31.3348C23.8057 31.3109 24.4805 29.4775 25.7138 28.2632Z" fill="#ED8A22"/>
</g>
<defs>
<clipPath id="clip0_0_1023">
<rect width="77" height="44.8354" fill="white"/>
</clipPath>
</defs>
</svg>
