<svg width="20" height="17" viewBox="0 0 20 17" fill="none" xmlns="http://www.w3.org/2000/svg">
<path fill-rule="evenodd" clip-rule="evenodd" d="M1.6975 7.4111C6.8654 5.15953 10.3115 3.67516 12.0357 2.95798C16.9588 0.910299 17.9818 0.554595 18.6486 0.54285C18.7952 0.540267 19.1231 0.57661 19.3355 0.748955C19.5148 0.894479 19.5642 1.09106 19.5878 1.22903C19.6114 1.36701 19.6408 1.68131 19.6174 1.9269C19.3507 4.73002 18.1963 11.5325 17.609 14.672C17.3605 16.0005 16.8712 16.4459 16.3975 16.4895C15.368 16.5842 14.5863 15.8091 13.5892 15.1555C12.029 14.1328 11.1475 13.4961 9.63306 12.4981C7.88281 11.3447 9.01742 10.7108 10.0149 9.67476C10.2759 9.40364 14.8118 5.27794 14.8996 4.90368C14.9105 4.85687 14.9207 4.68239 14.8171 4.59026C14.7134 4.49813 14.5604 4.52963 14.45 4.55469C14.2936 4.59021 11.801 6.23766 6.97251 9.49705C6.26502 9.98287 5.6242 10.2196 5.05004 10.2072C4.41708 10.1935 3.19952 9.84929 2.29439 9.55506C1.1842 9.19419 0.301855 9.00339 0.378687 8.39051C0.418707 8.07129 0.85831 7.74482 1.6975 7.4111Z" fill="#1E1E1E"/>
</svg>
