<svg width="234" height="248" viewBox="0 0 234 248" fill="none" xmlns="http://www.w3.org/2000/svg">
<path d="M77.5272 76.0848L81.3177 78.0959C80.101 80.5858 78.6503 82.5969 77.0124 84.1292C75.3746 85.6615 73.5495 86.8107 71.5373 87.6247C69.5251 88.4387 67.2321 88.8218 64.6583 88.8218C58.996 88.8218 54.5504 86.9064 51.3214 83.1237C48.1393 79.293 46.5015 75.0314 46.5015 70.1951C46.5015 65.6941 47.8585 61.6719 50.5727 58.1285C53.9888 53.6275 58.6216 51.377 64.3775 51.377C70.3206 51.377 75.047 53.6754 78.6035 58.2722C81.1305 61.5282 82.394 65.5983 82.4408 70.4346H51.1343C51.2279 74.5525 52.4913 77.9522 55.0183 80.5858C57.4985 83.2194 60.587 84.5602 64.2839 84.5602C66.0622 84.5602 67.7936 84.225 69.4783 83.6025C71.1629 82.98 72.5668 82.1181 73.7367 81.1125C74.9066 80.107 76.1701 78.4311 77.5272 76.0848ZM77.5272 66.5081C76.9188 64.0661 76.0765 62.1028 74.9066 60.6663C73.7835 59.1819 72.2392 58.0327 70.3674 57.123C68.4956 56.2132 66.5301 55.7822 64.4243 55.7822C61.0082 55.7822 58.0601 56.8835 55.6267 59.1341C53.8484 60.7621 52.4913 63.2042 51.5554 66.5081H77.5272Z" fill="#ED8A22"/>
<path d="M89.4224 68.0864H91.2474V70.1454C91.809 69.3314 92.3705 68.7089 92.9788 68.3259C93.5872 67.9428 94.1955 67.7034 94.8507 67.7034C95.3654 67.7034 95.8802 67.847 96.4417 68.1822L95.5058 69.7145C95.1315 69.5708 94.8039 69.4751 94.5699 69.4751C93.9616 69.4751 93.4 69.7145 92.8385 70.2412C92.2769 70.72 91.8557 71.534 91.575 72.5875C91.341 73.4015 91.2474 75.0295 91.2474 77.5195V82.3557H89.4224V68.0864Z" fill="#ED8A22" stroke="#ED8A22" stroke-width="0.595486" stroke-miterlimit="10"/>
<path d="M104.54 68.0892H106.318V70.5312C106.927 69.6214 107.582 68.9511 108.237 68.5201C109.126 67.9455 110.109 67.6582 111.091 67.6582C111.747 67.6582 112.402 67.8019 113.01 68.0413C113.618 68.3286 114.133 68.6638 114.508 69.1426C114.882 69.5735 115.21 70.2439 115.49 71.0579C116.099 69.9566 116.847 69.0947 117.737 68.5201C118.626 67.9455 119.608 67.6582 120.638 67.6582C121.621 67.6582 122.463 67.8976 123.165 68.4243C123.867 68.9511 124.428 69.6214 124.803 70.4833C125.177 71.3931 125.317 72.686 125.317 74.5055V82.3584H123.539V74.6013C123.539 73.069 123.446 72.0156 123.212 71.441C122.978 70.8664 122.65 70.3876 122.135 70.0524C121.621 69.7172 121.012 69.5257 120.31 69.5257C119.421 69.5257 118.672 69.7651 117.924 70.2918C117.222 70.8185 116.66 71.5368 116.333 72.3987C116.005 73.2606 115.818 74.745 115.818 76.7561V82.3584H114.04V75.0801C114.04 73.3563 113.946 72.2071 113.712 71.5846C113.525 70.9622 113.15 70.4833 112.636 70.1003C112.121 69.7172 111.513 69.5257 110.764 69.5257C109.922 69.5257 109.173 69.7651 108.424 70.2918C107.722 70.8185 107.161 71.4889 106.833 72.3508C106.505 73.2127 106.318 74.5534 106.318 76.3251V82.3584H104.54V68.0892Z" fill="#ED8A22" stroke="#ED8A22" stroke-width="0.595486" stroke-miterlimit="10"/>
<path d="M146.895 65.4541C147.222 65.4541 147.55 65.5978 147.784 65.8372C148.018 66.0766 148.158 66.3639 148.158 66.747C148.158 67.0821 148.018 67.3694 147.784 67.6567C147.55 67.8962 147.269 68.0398 146.895 68.0398C146.567 68.0398 146.286 67.8962 146.006 67.6567C145.772 67.4173 145.631 67.13 145.631 66.747C145.631 66.4118 145.772 66.0766 146.006 65.8372C146.286 65.5978 146.567 65.4541 146.895 65.4541ZM146.146 70.3861H147.644V82.357H146.146V70.3861Z" fill="#ED8A22" stroke="#ED8A22" stroke-width="0.793981" stroke-miterlimit="10"/>
<path d="M135.9 65.4541C136.228 65.4541 136.555 65.5978 136.789 65.8372C137.023 66.0766 137.164 66.3639 137.164 66.747C137.164 67.0821 137.023 67.3694 136.789 67.6567C136.555 67.8962 136.275 68.0398 135.9 68.0398C135.573 68.0398 135.292 67.8962 135.011 67.6567C134.777 67.4173 134.637 67.13 134.637 66.747C134.637 66.4118 134.777 66.0766 135.011 65.8372C135.292 65.5978 135.573 65.4541 135.9 65.4541ZM135.151 70.3861H136.649V82.357H135.151V70.3861Z" fill="#ED8A22" stroke="#ED8A22" stroke-width="0.793981" stroke-miterlimit="10"/>
<path d="M89.1973 42.469H91.0223V44.528C91.5839 43.714 92.1454 43.0915 92.7538 42.7084C93.3621 42.3254 93.9704 42.0859 94.6256 42.0859C95.1403 42.0859 95.6551 42.2296 96.2167 42.5648L95.2807 44.097C94.9064 43.9534 94.5788 43.8576 94.3448 43.8576C93.7365 43.8576 93.1749 44.097 92.6134 44.6238C92.0518 45.1026 91.6306 45.9166 91.3499 46.97C91.1159 47.7841 91.0223 49.4121 91.0223 51.902V56.7382H89.1973V42.469Z" fill="#363B51" stroke="#363B51" stroke-width="0.793981" stroke-miterlimit="10"/>
<path d="M113.998 42.469V56.6904H112.22V54.2483C111.471 55.206 110.629 55.8764 109.693 56.3552C108.757 56.834 107.727 57.0735 106.651 57.0735C104.686 57.0735 103.001 56.3552 101.597 54.8708C100.193 53.3864 99.4912 51.6147 99.4912 49.5558C99.4912 47.4968 100.193 45.773 101.597 44.2886C103.001 42.8521 104.686 42.0859 106.698 42.0859C107.821 42.0859 108.897 42.3254 109.786 42.8521C110.722 43.3309 111.518 44.097 112.22 45.1026V42.469H113.998ZM106.838 43.9055C105.855 43.9055 104.92 44.1449 104.077 44.6716C103.235 45.1505 102.58 45.8687 102.065 46.7785C101.55 47.6883 101.316 48.646 101.316 49.6515C101.316 50.6571 101.55 51.6147 102.065 52.5245C102.58 53.4343 103.235 54.1526 104.077 54.6793C104.92 55.206 105.855 55.4454 106.791 55.4454C107.774 55.4454 108.71 55.206 109.599 54.6793C110.488 54.1526 111.143 53.4822 111.611 52.6203C112.079 51.7584 112.313 50.8007 112.313 49.6994C112.313 48.0714 111.799 46.6827 110.722 45.5814C109.693 44.4322 108.382 43.9055 106.838 43.9055Z" fill="#363B51" stroke="#363B51" stroke-width="0.793981" stroke-miterlimit="10"/>
<path d="M120.366 42.469H122.144V45.0068C122.846 44.0492 123.642 43.283 124.531 42.8042C125.42 42.3254 126.356 42.0859 127.386 42.0859C128.415 42.0859 129.351 42.3732 130.147 42.9C130.942 43.4267 131.55 44.1928 131.925 45.1026C132.299 46.0124 132.486 47.4489 132.486 49.3642V56.6904H130.708V49.8909C130.708 48.2629 130.661 47.1616 130.521 46.587C130.334 45.6293 129.913 44.9589 129.304 44.4801C128.696 44.0013 127.947 43.7619 127.011 43.7619C125.935 43.7619 124.952 44.1449 124.11 44.8632C123.268 45.5814 122.706 46.4912 122.425 47.5925C122.238 48.3108 122.191 49.6036 122.191 51.4711V56.6904H120.413V42.469H120.366Z" fill="#363B51" stroke="#363B51" stroke-width="0.793981" stroke-miterlimit="10"/>
<path d="M152.595 37.0112V56.7392H150.816V54.2972C150.068 55.2548 149.225 55.9252 148.289 56.404C147.353 56.8829 146.324 57.1223 145.248 57.1223C143.282 57.1223 141.598 56.404 140.194 54.9196C138.79 53.4352 138.088 51.6636 138.088 49.6046C138.088 47.5456 138.79 45.8218 140.194 44.3374C141.598 42.9009 143.282 42.1348 145.294 42.1348C146.418 42.1348 147.494 42.3742 148.383 42.9009C149.319 43.3797 150.114 44.1459 150.816 45.1514V37.0112H152.595ZM145.435 43.9064C144.452 43.9064 143.516 44.1459 142.674 44.6726C141.832 45.1514 141.176 45.8697 140.662 46.7794C140.147 47.6892 139.913 48.6469 139.913 49.6525C139.913 50.658 140.147 51.6157 140.662 52.5255C141.176 53.4352 141.832 54.1535 142.674 54.6802C143.516 55.2069 144.452 55.4464 145.388 55.4464C146.371 55.4464 147.307 55.2069 148.196 54.6802C149.085 54.1535 149.74 53.4831 150.208 52.6212C150.676 51.7593 150.91 50.8017 150.91 49.7003C150.91 48.0723 150.395 46.6837 149.319 45.5824C148.289 44.4332 146.979 43.9064 145.435 43.9064Z" fill="#363B51" stroke="#363B51" stroke-width="0.793981" stroke-miterlimit="10"/>
<path d="M79.5046 29.5438L76.3692 32.5605C74.2634 30.4057 71.7364 28.634 68.9755 27.4369C66.4953 26.3356 63.8747 25.7131 61.1605 25.6653C57.9784 25.6653 54.8899 26.4793 52.1289 28.0594C49.368 29.5438 47.075 31.7943 45.4839 34.5237C43.9396 37.1094 43.1441 40.126 43.1441 43.1427C43.1441 46.2551 43.9864 49.3197 45.5775 52.0011C47.2154 54.7784 49.5084 57.0768 52.3161 58.609C55.2175 60.1892 58.4932 61.0511 61.7689 61.0032C65.9337 61.0032 69.4434 59.8061 72.298 57.4119C75.1057 55.1135 76.9308 51.7617 77.3987 48.0747H64.5299V44.1004H81.8912C81.8444 50.4689 80.0193 55.5445 76.3224 59.2794C72.6256 63.0143 67.7588 64.8818 61.6285 64.9296C54.1879 64.9296 48.2449 62.3439 43.8928 57.1246C40.6171 53.294 38.8389 48.362 38.8857 43.2385C38.8857 39.4078 39.8684 35.625 41.787 32.3211C43.6589 29.0171 46.4198 26.2877 49.6955 24.4203C53.2052 22.505 57.0893 21.4994 61.067 21.5473C64.3895 21.5473 67.6652 22.1698 70.7069 23.4626C73.9826 24.8991 76.9776 26.9581 79.5046 29.5438Z" fill="#363B51"/>
<path d="M44.6959 24.3252C44.6959 24.3252 16.4779 23.7027 4.45136 1.29321C4.45136 1.29321 2.95389 28.3474 36.6938 28.2037C36.6938 28.2037 29.3936 38.1156 36.4598 47.3092C36.413 47.2135 32.5289 33.5667 44.6959 24.3252Z" fill="#363B51"/>
<path d="M32.0184 38.1635C32.0184 37.11 32.1588 36.0566 32.3928 35.0032C32.3928 35.0032 27.292 39.9831 16.9033 37.2537C16.9033 37.2537 23.2676 46.9262 31.644 38.5944" fill="#ED8A22"/>
<path d="M32.8588 32.9906C33.28 31.602 33.8415 30.3091 34.5435 29.0641C34.5435 29.0641 17.1822 33.6131 7.40186 23.3181C7.40186 23.3181 14.0001 42.1363 31.9697 33.4215" fill="#ED8A22"/>
<path d="M51.7108 56.8376L55.3609 59.4712C54.2378 60.6683 53.3019 62.0569 52.6467 63.5892L47.8735 63.0146C47.8735 62.9667 49.2306 59.2797 51.7108 56.8376Z" fill="#ED8A22"/>
<rect y="161" width="234" height="87" rx="8" fill="#EDEEF5"/>
<path d="M17 211.5L20.38 206.1C19.42 205.82 18.66 205.333 18.1 204.64C17.54 203.947 17.26 203.033 17.26 201.9C17.26 201.047 17.3933 200.333 17.66 199.76C17.94 199.173 18.3267 198.707 18.82 198.36C19.3133 198 19.8933 197.747 20.56 197.6C21.24 197.44 21.9667 197.36 22.74 197.36H28.18V211.5H25.68V206.52H22.84L19.9 211.5H17ZM22.94 204.3H25.68V199.64H22.58C21.98 199.64 21.4667 199.72 21.04 199.88C20.6133 200.04 20.2867 200.287 20.06 200.62C19.8467 200.953 19.74 201.387 19.74 201.92C19.74 202.56 19.8933 203.053 20.2 203.4C20.5067 203.733 20.9 203.967 21.38 204.1C21.8733 204.233 22.3933 204.3 22.94 204.3ZM30.9495 211.5V200.96H33.3895V205.2H37.7895V200.96H40.2295V211.5H37.7895V207.38H33.3895V211.5H30.9495ZM41.7302 214.56V209.34C42.0768 209.34 42.3635 209.253 42.5902 209.08C42.8168 208.893 42.9968 208.647 43.1302 208.34C43.2768 208.033 43.3902 207.7 43.4702 207.34C43.5502 206.967 43.6102 206.593 43.6502 206.22C43.7302 205.62 43.7768 205.007 43.7902 204.38C43.8168 203.74 43.8302 203.193 43.8302 202.74C43.8435 202.447 43.8502 202.153 43.8502 201.86C43.8502 201.553 43.8502 201.253 43.8502 200.96H51.9902V209.34H53.3502V214.56H50.9502V211.5H44.1302V214.56H41.7302ZM45.2102 209.34H49.5502V203.12H46.0502C46.0368 203.613 46.0235 204.147 46.0102 204.72C45.9968 205.28 45.9702 205.813 45.9302 206.32C45.9168 206.613 45.8835 206.94 45.8302 207.3C45.7902 207.66 45.7235 208.013 45.6302 208.36C45.5368 208.707 45.3968 209.033 45.2102 209.34ZM59.5758 211.64C58.4824 211.64 57.5491 211.413 56.7758 210.96C56.0158 210.507 55.4358 209.88 55.0358 209.08C54.6491 208.267 54.4558 207.327 54.4558 206.26C54.4558 205.193 54.6558 204.253 55.0558 203.44C55.4691 202.613 56.0558 201.967 56.8158 201.5C57.5891 201.033 58.5158 200.8 59.5958 200.8C60.3691 200.8 61.0558 200.94 61.6558 201.22C62.2558 201.487 62.7624 201.867 63.1758 202.36C63.5891 202.84 63.8958 203.4 64.0958 204.04C64.2958 204.667 64.3891 205.34 64.3758 206.06C64.3758 206.22 64.3691 206.38 64.3558 206.54C64.3424 206.687 64.3224 206.847 64.2958 207.02H56.8958C56.9358 207.487 57.0558 207.913 57.2558 208.3C57.4691 208.687 57.7624 208.993 58.1358 209.22C58.5224 209.447 59.0024 209.56 59.5758 209.56C59.9091 209.56 60.2291 209.52 60.5358 209.44C60.8424 209.347 61.1091 209.213 61.3358 209.04C61.5758 208.867 61.7358 208.647 61.8158 208.38H64.2558C64.0824 209.14 63.7624 209.76 63.2958 210.24C62.8291 210.72 62.2691 211.073 61.6158 211.3C60.9758 211.527 60.2958 211.64 59.5758 211.64ZM56.9358 205.2H62.0158C62.0158 204.76 61.9158 204.36 61.7158 204C61.5158 203.64 61.2291 203.36 60.8558 203.16C60.4958 202.947 60.0558 202.84 59.5358 202.84C58.9758 202.84 58.5091 202.953 58.1358 203.18C57.7624 203.407 57.4758 203.7 57.2758 204.06C57.0758 204.42 56.9624 204.8 56.9358 205.2ZM66.3402 211.5V200.96H68.7802V205.18H70.4602L73.2002 200.96H75.9602L72.5802 205.94L76.0802 211.5H73.2602L70.6402 207.34H68.7802V211.5H66.3402ZM81.8395 211.64C80.7462 211.64 79.8262 211.42 79.0795 210.98C78.3329 210.527 77.7662 209.893 77.3795 209.08C76.9929 208.267 76.7995 207.327 76.7995 206.26C76.7995 205.193 76.9995 204.253 77.3995 203.44C77.7995 202.613 78.3862 201.967 79.1595 201.5C79.9329 201.033 80.8729 200.8 81.9795 200.8C82.7929 200.8 83.5129 200.94 84.1395 201.22C84.7795 201.5 85.2929 201.913 85.6795 202.46C86.0795 202.993 86.3329 203.66 86.4395 204.46H84.0395C83.8795 203.953 83.6129 203.587 83.2395 203.36C82.8795 203.12 82.4395 203 81.9195 203C81.2529 203 80.7195 203.167 80.3195 203.5C79.9329 203.82 79.6529 204.227 79.4795 204.72C79.3062 205.213 79.2195 205.727 79.2195 206.26C79.2195 206.82 79.3129 207.347 79.4995 207.84C79.6862 208.32 79.9729 208.707 80.3595 209C80.7595 209.293 81.2729 209.44 81.8995 209.44C82.4062 209.44 82.8595 209.327 83.2595 209.1C83.6729 208.873 83.9395 208.507 84.0595 208H86.5395C86.4462 208.813 86.1729 209.493 85.7195 210.04C85.2795 210.573 84.7195 210.973 84.0395 211.24C83.3595 211.507 82.6262 211.64 81.8395 211.64Z" fill="#1E1E1E"/>
<path d="M106.12 211.66C105.493 211.66 104.9 211.587 104.34 211.44C103.78 211.28 103.273 211.04 102.82 210.72C102.367 210.4 101.987 209.993 101.68 209.5C101.387 208.993 101.187 208.4 101.08 207.72H103.54C103.647 208.013 103.82 208.287 104.06 208.54C104.313 208.793 104.613 208.993 104.96 209.14C105.32 209.287 105.707 209.36 106.12 209.36C106.68 209.36 107.16 209.267 107.56 209.08C107.96 208.88 108.273 208.6 108.5 208.24C108.727 207.867 108.84 207.42 108.84 206.9C108.84 206.127 108.6 205.52 108.12 205.08C107.653 204.64 107.013 204.42 106.2 204.42C105.72 204.42 105.273 204.507 104.86 204.68C104.447 204.84 104.06 205.067 103.7 205.36H101.48L101.86 197.36H110.88V199.64H104.16L103.92 203.02C104.32 202.74 104.78 202.533 105.3 202.4C105.82 202.253 106.387 202.187 107 202.2C107.907 202.213 108.687 202.413 109.34 202.8C110.007 203.173 110.513 203.693 110.86 204.36C111.207 205.027 111.38 205.813 111.38 206.72C111.38 207.773 111.147 208.667 110.68 209.4C110.227 210.133 109.6 210.693 108.8 211.08C108.013 211.467 107.12 211.66 106.12 211.66ZM115.025 211.74C114.598 211.74 114.231 211.6 113.925 211.32C113.631 211.04 113.485 210.66 113.485 210.18C113.485 209.7 113.638 209.32 113.945 209.04C114.251 208.747 114.618 208.6 115.045 208.6C115.471 208.6 115.831 208.747 116.125 209.04C116.418 209.32 116.565 209.7 116.565 210.18C116.565 210.66 116.418 211.04 116.125 211.32C115.831 211.6 115.465 211.74 115.025 211.74ZM124.14 211.66C123.113 211.66 122.24 211.48 121.52 211.12C120.8 210.747 120.22 210.227 119.78 209.56C119.34 208.893 119.013 208.127 118.8 207.26C118.6 206.393 118.5 205.46 118.5 204.46C118.5 203.447 118.6 202.5 118.8 201.62C119.013 200.74 119.34 199.973 119.78 199.32C120.233 198.653 120.82 198.133 121.54 197.76C122.26 197.373 123.133 197.18 124.16 197.18C125.213 197.18 126.1 197.38 126.82 197.78C127.553 198.18 128.133 198.72 128.56 199.4C129 200.08 129.313 200.853 129.5 201.72C129.7 202.587 129.8 203.493 129.8 204.44C129.8 205.373 129.7 206.273 129.5 207.14C129.313 208.007 129 208.78 128.56 209.46C128.12 210.14 127.533 210.68 126.8 211.08C126.08 211.467 125.193 211.66 124.14 211.66ZM124.14 209.38C124.82 209.38 125.366 209.22 125.78 208.9C126.206 208.58 126.526 208.173 126.74 207.68C126.953 207.173 127.093 206.633 127.16 206.06C127.24 205.487 127.28 204.947 127.28 204.44C127.28 203.933 127.246 203.4 127.18 202.84C127.113 202.267 126.973 201.727 126.76 201.22C126.546 200.713 126.233 200.3 125.82 199.98C125.406 199.66 124.853 199.5 124.16 199.5C123.466 199.5 122.906 199.66 122.48 199.98C122.066 200.3 121.753 200.713 121.54 201.22C121.326 201.713 121.18 202.247 121.1 202.82C121.033 203.393 121 203.933 121 204.44C121 204.947 121.033 205.487 121.1 206.06C121.166 206.62 121.3 207.153 121.5 207.66C121.713 208.167 122.026 208.58 122.44 208.9C122.866 209.22 123.433 209.38 124.14 209.38Z" fill="#1E1E1E"/>
<g clip-path="url(#clip0_0_1228)">
<path d="M151.989 177.357C152.178 176.881 152.822 176.881 153.011 177.357L154.127 180.163C154.207 180.363 154.387 180.5 154.594 180.518L157.49 180.761C157.981 180.802 158.18 181.442 157.806 181.777L155.599 183.754C155.442 183.896 155.373 184.117 155.421 184.329L156.095 187.285C156.209 187.786 155.688 188.182 155.268 187.913L152.788 186.329C152.611 186.216 152.389 186.216 152.212 186.329L149.732 187.913C149.312 188.182 148.791 187.786 148.905 187.285L149.579 184.329C149.627 184.117 149.558 183.896 149.401 183.754L147.194 181.777C146.82 181.442 147.019 180.802 147.51 180.761L150.406 180.518C150.613 180.5 150.793 180.363 150.873 180.163L151.989 177.357Z" fill="#B2B2B2"/>
<path d="M166.989 177.357C167.178 176.881 167.822 176.881 168.011 177.357L169.127 180.163C169.207 180.363 169.387 180.5 169.594 180.518L172.49 180.761C172.981 180.802 173.18 181.442 172.806 181.777L170.599 183.754C170.442 183.896 170.373 184.117 170.421 184.329L171.095 187.285C171.209 187.786 170.688 188.182 170.268 187.913L167.788 186.329C167.611 186.216 167.389 186.216 167.212 186.329L164.732 187.913C164.312 188.182 163.791 187.786 163.905 187.285L164.579 184.329C164.627 184.117 164.558 183.896 164.401 183.754L162.194 181.777C161.82 181.442 162.019 180.802 162.51 180.761L165.406 180.518C165.613 180.5 165.793 180.363 165.873 180.163L166.989 177.357Z" fill="#B2B2B2"/>
<path d="M181.989 177.357C182.178 176.881 182.822 176.881 183.011 177.357L184.127 180.163C184.207 180.363 184.387 180.5 184.594 180.518L187.49 180.761C187.981 180.802 188.18 181.442 187.806 181.777L185.599 183.754C185.442 183.896 185.373 184.117 185.421 184.329L186.095 187.285C186.209 187.786 185.688 188.182 185.268 187.913L182.788 186.329C182.611 186.216 182.389 186.216 182.212 186.329L179.732 187.913C179.312 188.182 178.791 187.786 178.905 187.285L179.579 184.329C179.627 184.117 179.558 183.896 179.401 183.754L177.194 181.777C176.82 181.442 177.019 180.802 177.51 180.761L180.406 180.518C180.613 180.5 180.793 180.363 180.873 180.163L181.989 177.357Z" fill="#B2B2B2"/>
<path d="M196.989 177.357C197.178 176.881 197.822 176.881 198.011 177.357L199.127 180.163C199.207 180.363 199.387 180.5 199.594 180.518L202.49 180.761C202.981 180.802 203.18 181.442 202.806 181.777L200.599 183.754C200.442 183.896 200.373 184.117 200.421 184.329L201.095 187.285C201.209 187.786 200.688 188.182 200.268 187.913L197.788 186.329C197.611 186.216 197.389 186.216 197.212 186.329L194.732 187.913C194.312 188.182 193.791 187.786 193.905 187.285L194.579 184.329C194.627 184.117 194.558 183.896 194.401 183.754L192.194 181.777C191.82 181.442 192.019 180.802 192.51 180.761L195.406 180.518C195.613 180.5 195.793 180.363 195.873 180.163L196.989 177.357Z" fill="#B2B2B2"/>
<path d="M211.989 177.357C212.178 176.881 212.822 176.881 213.011 177.357L214.127 180.163C214.207 180.363 214.387 180.5 214.594 180.518L217.49 180.761C217.981 180.802 218.18 181.442 217.806 181.777L215.599 183.754C215.442 183.896 215.373 184.117 215.421 184.329L216.095 187.285C216.209 187.786 215.688 188.182 215.268 187.913L212.788 186.329C212.611 186.216 212.389 186.216 212.212 186.329L209.732 187.913C209.312 188.182 208.791 187.786 208.905 187.285L209.579 184.329C209.627 184.117 209.558 183.896 209.401 183.754L207.194 181.777C206.82 181.442 207.019 180.802 207.51 180.761L210.406 180.518C210.613 180.5 210.793 180.363 210.873 180.163L211.989 177.357Z" fill="#B2B2B2"/>
</g>
<path d="M149.366 210V202.062H147.35V201.236C147.723 201.208 148.055 201.166 148.344 201.11C148.633 201.045 148.89 200.937 149.114 200.788C149.347 200.629 149.553 200.401 149.73 200.102H150.584V210H149.366ZM156.16 210.112C155.768 210.112 155.371 210.075 154.97 210C154.578 209.916 154.209 209.785 153.864 209.608C153.528 209.431 153.239 209.193 152.996 208.894C152.763 208.595 152.613 208.227 152.548 207.788H153.808C153.92 208.105 154.107 208.353 154.368 208.53C154.629 208.707 154.919 208.833 155.236 208.908C155.563 208.973 155.875 209.006 156.174 209.006C156.389 209.006 156.622 208.987 156.874 208.95C157.126 208.913 157.369 208.833 157.602 208.712C157.845 208.591 158.041 208.413 158.19 208.18C158.339 207.937 158.414 207.62 158.414 207.228C158.414 206.855 158.344 206.556 158.204 206.332C158.064 206.099 157.877 205.926 157.644 205.814C157.411 205.693 157.149 205.613 156.86 205.576C156.58 205.539 156.295 205.52 156.006 205.52H155.054V204.428H155.628C155.955 204.428 156.263 204.4 156.552 204.344C156.841 204.279 157.098 204.181 157.322 204.05C157.546 203.919 157.719 203.747 157.84 203.532C157.971 203.317 158.036 203.051 158.036 202.734C158.036 202.277 157.938 201.931 157.742 201.698C157.555 201.465 157.313 201.306 157.014 201.222C156.715 201.138 156.403 201.096 156.076 201.096C155.815 201.096 155.544 201.138 155.264 201.222C154.993 201.297 154.751 201.423 154.536 201.6C154.321 201.768 154.177 201.997 154.102 202.286H152.884C152.94 201.875 153.071 201.525 153.276 201.236C153.481 200.947 153.733 200.709 154.032 200.522C154.34 200.335 154.676 200.2 155.04 200.116C155.413 200.032 155.791 199.99 156.174 199.99C156.594 199.99 156.986 200.037 157.35 200.13C157.723 200.214 158.05 200.359 158.33 200.564C158.61 200.76 158.829 201.021 158.988 201.348C159.156 201.675 159.24 202.071 159.24 202.538C159.24 202.883 159.184 203.201 159.072 203.49C158.96 203.779 158.792 204.031 158.568 204.246C158.353 204.461 158.083 204.638 157.756 204.778C158.176 204.853 158.526 205.002 158.806 205.226C159.095 205.45 159.31 205.725 159.45 206.052C159.599 206.369 159.674 206.729 159.674 207.13C159.674 207.755 159.562 208.264 159.338 208.656C159.114 209.048 158.825 209.351 158.47 209.566C158.115 209.771 157.733 209.916 157.322 210C156.911 210.075 156.524 210.112 156.16 210.112ZM164.485 210.112C164.009 210.112 163.551 210.033 163.113 209.874C162.683 209.715 162.31 209.477 161.993 209.16C161.675 208.833 161.456 208.432 161.335 207.956H162.679C162.847 208.311 163.117 208.577 163.491 208.754C163.873 208.922 164.251 209.006 164.625 209.006C165.129 209.006 165.544 208.903 165.871 208.698C166.207 208.483 166.468 208.194 166.655 207.83C166.851 207.466 166.991 207.06 167.075 206.612C167.159 206.155 167.201 205.683 167.201 205.198C167.201 205.151 167.201 205.1 167.201 205.044C167.201 204.988 167.201 204.937 167.201 204.89C167.023 205.254 166.785 205.548 166.487 205.772C166.188 205.987 165.857 206.145 165.493 206.248C165.129 206.341 164.76 206.388 164.387 206.388C163.808 206.388 163.276 206.271 162.791 206.038C162.315 205.795 161.932 205.445 161.643 204.988C161.363 204.521 161.223 203.957 161.223 203.294C161.223 202.631 161.367 202.053 161.657 201.558C161.946 201.063 162.347 200.681 162.861 200.41C163.383 200.13 163.985 199.99 164.667 199.99C165.395 199.99 165.997 200.144 166.473 200.452C166.958 200.76 167.336 201.171 167.607 201.684C167.887 202.197 168.083 202.762 168.195 203.378C168.307 203.985 168.363 204.591 168.363 205.198C168.363 205.898 168.293 206.547 168.153 207.144C168.013 207.732 167.789 208.25 167.481 208.698C167.173 209.146 166.771 209.496 166.277 209.748C165.782 209.991 165.185 210.112 164.485 210.112ZM164.569 205.268C164.97 205.268 165.334 205.184 165.661 205.016C165.997 204.848 166.263 204.615 166.459 204.316C166.664 204.017 166.767 203.667 166.767 203.266C166.767 202.837 166.673 202.463 166.487 202.146C166.3 201.819 166.043 201.563 165.717 201.376C165.399 201.189 165.035 201.096 164.625 201.096C164.205 201.096 163.831 201.189 163.505 201.376C163.187 201.563 162.935 201.815 162.749 202.132C162.562 202.449 162.469 202.799 162.469 203.182C162.469 203.835 162.655 204.349 163.029 204.722C163.411 205.086 163.925 205.268 164.569 205.268Z" fill="#1E1E1E"/>
<path d="M151.158 228.084C150.383 228.084 149.735 227.925 149.212 227.608C148.689 227.281 148.297 226.833 148.036 226.264C147.784 225.695 147.658 225.046 147.658 224.318C147.658 223.581 147.784 222.932 148.036 222.372C148.297 221.803 148.689 221.355 149.212 221.028C149.735 220.701 150.393 220.538 151.186 220.538C151.961 220.538 152.605 220.701 153.118 221.028C153.641 221.355 154.028 221.803 154.28 222.372C154.541 222.932 154.672 223.581 154.672 224.318C154.672 225.046 154.541 225.695 154.28 226.264C154.019 226.833 153.627 227.281 153.104 227.608C152.591 227.925 151.942 228.084 151.158 228.084ZM151.158 227.034C151.699 227.034 152.138 226.913 152.474 226.67C152.819 226.427 153.071 226.101 153.23 225.69C153.398 225.279 153.482 224.822 153.482 224.318C153.482 223.814 153.398 223.357 153.23 222.946C153.071 222.535 152.819 222.209 152.474 221.966C152.138 221.723 151.699 221.602 151.158 221.602C150.626 221.602 150.187 221.723 149.842 221.966C149.506 222.209 149.254 222.535 149.086 222.946C148.927 223.357 148.848 223.814 148.848 224.318C148.848 224.822 148.927 225.279 149.086 225.69C149.254 226.101 149.506 226.427 149.842 226.67C150.187 226.913 150.626 227.034 151.158 227.034ZM157.986 228V221.672H155.452V220.622H161.71V221.672H159.176V228H157.986ZM165.446 228.084C165.091 228.084 164.737 228.051 164.382 227.986C164.027 227.921 163.696 227.813 163.388 227.664C163.089 227.505 162.847 227.295 162.66 227.034C162.473 226.763 162.371 226.427 162.352 226.026H163.514C163.561 226.278 163.696 226.479 163.92 226.628C164.144 226.777 164.396 226.885 164.676 226.95C164.965 227.006 165.222 227.034 165.446 227.034C165.707 227.034 165.973 227.006 166.244 226.95C166.524 226.894 166.757 226.782 166.944 226.614C167.14 226.446 167.238 226.199 167.238 225.872C167.238 225.555 167.159 225.321 167 225.172C166.851 225.023 166.65 224.925 166.398 224.878C166.155 224.831 165.889 224.808 165.6 224.808H164.284V223.758H165.362C165.539 223.758 165.721 223.744 165.908 223.716C166.095 223.679 166.267 223.623 166.426 223.548C166.585 223.464 166.711 223.347 166.804 223.198C166.907 223.049 166.958 222.857 166.958 222.624C166.958 222.363 166.883 222.157 166.734 222.008C166.585 221.859 166.393 221.756 166.16 221.7C165.927 221.635 165.689 221.602 165.446 221.602C165.222 221.602 164.984 221.625 164.732 221.672C164.489 221.719 164.279 221.812 164.102 221.952C163.925 222.083 163.817 222.279 163.78 222.54H162.604C162.623 222.036 162.777 221.639 163.066 221.35C163.355 221.061 163.715 220.855 164.144 220.734C164.573 220.603 165.003 220.538 165.432 220.538C165.759 220.538 166.081 220.571 166.398 220.636C166.715 220.701 167.005 220.813 167.266 220.972C167.527 221.121 167.733 221.322 167.882 221.574C168.041 221.826 168.12 222.139 168.12 222.512C168.12 222.848 168.041 223.147 167.882 223.408C167.723 223.669 167.481 223.879 167.154 224.038C167.63 224.187 167.961 224.421 168.148 224.738C168.335 225.055 168.428 225.433 168.428 225.872C168.428 226.264 168.344 226.6 168.176 226.88C168.008 227.151 167.779 227.379 167.49 227.566C167.21 227.743 166.893 227.874 166.538 227.958C166.183 228.042 165.819 228.084 165.446 228.084ZM169.963 228V220.622H171.181V223.436H172.511C172.95 223.436 173.347 223.473 173.701 223.548C174.056 223.623 174.359 223.744 174.611 223.912C174.863 224.08 175.055 224.309 175.185 224.598C175.316 224.878 175.381 225.233 175.381 225.662C175.381 226.073 175.311 226.427 175.171 226.726C175.031 227.025 174.831 227.267 174.569 227.454C174.317 227.641 174.014 227.781 173.659 227.874C173.314 227.958 172.936 228 172.525 228H169.963ZM171.181 226.964H171.573C171.9 226.964 172.217 226.959 172.525 226.95C172.833 226.931 173.109 226.885 173.351 226.81C173.603 226.735 173.804 226.614 173.953 226.446C174.103 226.269 174.177 226.021 174.177 225.704C174.177 225.405 174.117 225.177 173.995 225.018C173.883 224.85 173.734 224.729 173.547 224.654C173.361 224.57 173.155 224.519 172.931 224.5C172.717 224.481 172.502 224.472 172.287 224.472H171.181V226.964ZM176.403 228V220.622H177.593V228H176.403ZM179.465 228V220.622H182.321C182.648 220.622 182.97 220.645 183.287 220.692C183.614 220.729 183.908 220.813 184.169 220.944C184.44 221.065 184.655 221.247 184.813 221.49C184.981 221.733 185.065 222.055 185.065 222.456C185.065 222.699 185.028 222.923 184.953 223.128C184.879 223.324 184.767 223.497 184.617 223.646C184.477 223.795 184.295 223.926 184.071 224.038C184.575 224.15 184.939 224.369 185.163 224.696C185.387 225.023 185.499 225.396 185.499 225.816C185.499 226.189 185.429 226.516 185.289 226.796C185.159 227.067 184.972 227.291 184.729 227.468C184.496 227.645 184.221 227.781 183.903 227.874C183.595 227.958 183.264 228 182.909 228H179.465ZM180.683 226.964H182.629C182.919 226.964 183.189 226.936 183.441 226.88C183.693 226.824 183.899 226.721 184.057 226.572C184.216 226.413 184.295 226.189 184.295 225.9C184.295 225.601 184.225 225.377 184.085 225.228C183.955 225.069 183.782 224.962 183.567 224.906C183.362 224.841 183.138 224.803 182.895 224.794C182.653 224.785 182.424 224.78 182.209 224.78H180.683V226.964ZM180.683 223.772H181.705C181.892 223.772 182.107 223.763 182.349 223.744C182.601 223.725 182.844 223.683 183.077 223.618C183.32 223.543 183.516 223.431 183.665 223.282C183.824 223.133 183.903 222.927 183.903 222.666C183.903 222.321 183.805 222.083 183.609 221.952C183.423 221.812 183.199 221.733 182.937 221.714C182.676 221.686 182.433 221.672 182.209 221.672H180.683V223.772ZM190.342 228.084C189.567 228.084 188.918 227.925 188.396 227.608C187.873 227.281 187.481 226.833 187.22 226.264C186.968 225.695 186.842 225.046 186.842 224.318C186.842 223.581 186.968 222.932 187.22 222.372C187.481 221.803 187.873 221.355 188.396 221.028C188.918 220.701 189.576 220.538 190.37 220.538C191.144 220.538 191.788 220.701 192.302 221.028C192.824 221.355 193.212 221.803 193.464 222.372C193.725 222.932 193.856 223.581 193.856 224.318C193.856 225.046 193.725 225.695 193.464 226.264C193.202 226.833 192.81 227.281 192.288 227.608C191.774 227.925 191.126 228.084 190.342 228.084ZM190.342 227.034C190.883 227.034 191.322 226.913 191.658 226.67C192.003 226.427 192.255 226.101 192.414 225.69C192.582 225.279 192.666 224.822 192.666 224.318C192.666 223.814 192.582 223.357 192.414 222.946C192.255 222.535 192.003 222.209 191.658 221.966C191.322 221.723 190.883 221.602 190.342 221.602C189.81 221.602 189.371 221.723 189.026 221.966C188.69 222.209 188.438 222.535 188.27 222.946C188.111 223.357 188.032 223.814 188.032 224.318C188.032 224.822 188.111 225.279 188.27 225.69C188.438 226.101 188.69 226.427 189.026 226.67C189.371 226.913 189.81 227.034 190.342 227.034ZM195.448 228V220.622H198.304C198.63 220.622 198.952 220.645 199.27 220.692C199.596 220.729 199.89 220.813 200.152 220.944C200.422 221.065 200.637 221.247 200.796 221.49C200.964 221.733 201.048 222.055 201.048 222.456C201.048 222.699 201.01 222.923 200.936 223.128C200.861 223.324 200.749 223.497 200.6 223.646C200.46 223.795 200.278 223.926 200.054 224.038C200.558 224.15 200.922 224.369 201.146 224.696C201.37 225.023 201.482 225.396 201.482 225.816C201.482 226.189 201.412 226.516 201.272 226.796C201.141 227.067 200.954 227.291 200.712 227.468C200.478 227.645 200.203 227.781 199.886 227.874C199.578 227.958 199.246 228 198.892 228H195.448ZM196.666 226.964H198.612C198.901 226.964 199.172 226.936 199.424 226.88C199.676 226.824 199.881 226.721 200.04 226.572C200.198 226.413 200.278 226.189 200.278 225.9C200.278 225.601 200.208 225.377 200.068 225.228C199.937 225.069 199.764 224.962 199.55 224.906C199.344 224.841 199.12 224.803 198.878 224.794C198.635 224.785 198.406 224.78 198.192 224.78H196.666V226.964ZM196.666 223.772H197.688C197.874 223.772 198.089 223.763 198.332 223.744C198.584 223.725 198.826 223.683 199.06 223.618C199.302 223.543 199.498 223.431 199.648 223.282C199.806 223.133 199.886 222.927 199.886 222.666C199.886 222.321 199.788 222.083 199.592 221.952C199.405 221.812 199.181 221.733 198.92 221.714C198.658 221.686 198.416 221.672 198.192 221.672H196.666V223.772Z" fill="#1E1E1E"/>
<defs>
<clipPath id="clip0_0_1228">
<rect width="70.9998" height="11" fill="white" transform="translate(147 177)"/>
</clipPath>
</defs>
</svg>
